<svg width="199" height="48" viewBox="0 0 199 48" fill="none" xmlns="http://www.w3.org/2000/svg">
<path fill-rule="evenodd" clip-rule="evenodd" d="M0.0892148 33.79C0.133822 34.4052 0.17843 35.0203 0.17843 35.5916V35.6794H0.892148C1.11518 35.3719 1.29361 35.0862 1.47204 34.8006C1.65047 34.515 1.8289 34.2294 2.05194 33.9218C5.19281 29.4933 8.41871 25.0229 11.6122 20.5973L11.6129 20.5964C13.0454 18.6113 14.4714 16.6352 15.8802 14.6759C16.1479 14.4123 16.7724 13.9729 16.7724 13.9729H24.9801C18.8243 22.4973 12.7577 30.9339 6.78032 39.2825C6.78032 39.3704 6.95875 39.5462 6.95875 39.5462C8.5975 40.4324 10.2478 41.3415 11.9097 42.2569L11.9103 42.2572L11.911 42.2576C14.8629 43.8836 17.8513 45.5297 20.8763 47.1039C21.3223 47.3676 22.2145 47.3676 22.6606 47.1039C26.4767 44.9022 30.3262 42.7332 34.1886 40.557L34.1898 40.5563L34.1908 40.5558L34.1911 40.5556C36.6486 39.171 39.1113 37.7834 41.5741 36.3825C42.2878 35.9431 42.7339 35.24 42.7339 34.3612C42.7616 33.6513 42.7979 32.9244 42.8349 32.1858C42.9168 30.5472 43.0015 28.8511 43.0015 27.155C42.9717 25.7428 42.9518 24.3207 42.9319 22.8954V22.8953V22.8951V22.895V22.8949V22.8947V22.8946C42.8923 20.0628 42.8526 17.2181 42.7339 14.4123C42.7339 13.5335 42.6447 12.8304 42.4662 11.7759C42.1094 12.2153 42.0202 12.3032 41.8417 12.4789C38.3624 17.4221 34.7325 22.5137 31.1027 27.6052C29.8926 29.3025 28.6826 30.9997 27.4782 32.6915C27.0321 33.3067 26.586 33.5703 25.8723 33.5703H19.2704C19.1366 33.5703 18.9804 33.5264 18.8243 33.4824C18.6682 33.4385 18.5121 33.3945 18.3782 33.3945C23.4758 26.1249 28.6382 18.9191 33.7549 11.7772L33.7557 11.7761L33.7561 11.7756L33.7617 11.7677L33.7804 11.7416L33.8161 11.6918L33.8229 11.6824C34.6833 10.4814 35.5424 9.28223 36.3996 8.08488C36.2907 7.9776 36.2261 7.88486 36.1758 7.81261C36.1024 7.7073 36.0594 7.64548 35.9536 7.64548C34.4369 6.82526 32.9203 5.98551 31.4036 5.14576C28.3703 3.46626 25.337 1.78676 22.3037 0.263497C21.6792 0.175616 20.8763 0.175616 20.2518 0.439258C17.6135 1.87046 14.9753 3.35009 12.3371 4.82972L12.3371 4.82973L12.337 4.82976C8.81946 6.80258 5.30188 8.77539 1.7843 10.6334C0.446074 11.4244 0 12.391 0 13.7093V31.9884C0 32.5597 0.0446074 33.1748 0.0892148 33.79ZM162.817 28.6489C162.906 26.0125 161.925 24.167 159.427 23.1124C159.474 23.0889 159.516 23.0716 159.554 23.0556C159.659 23.0119 159.742 22.9775 159.873 22.8488C161.835 21.7942 162.549 19.9487 162.103 17.9275C161.657 15.9941 160.14 14.8516 158.267 14.588C156.902 14.308 155.429 14.2778 153.94 14.2473C153.092 14.2299 152.239 14.2124 151.397 14.1486H146.847C146.669 14.5001 146.669 14.7638 146.669 14.7638V32.252C146.669 33.1308 147.115 33.1308 147.74 33.1308H155.501C156.661 33.1308 157.642 33.1308 158.713 32.8672C160.943 32.252 162.638 30.4944 162.817 28.6489ZM153.086 29.3917L153.086 29.3917L153.085 29.3916C152.471 29.3719 151.85 29.352 151.219 29.352C151.219 28.063 151.223 26.7722 151.397 25.3973C153.182 25.3973 155.055 25.4852 156.839 25.661C157.821 25.7489 158.445 26.4519 158.445 27.5065C158.267 28.4732 157.553 29.1762 156.661 29.352C155.478 29.4685 154.295 29.4305 153.086 29.3917ZM152.825 21.7454C152.289 21.7259 151.754 21.7063 151.219 21.7063H151.13V17.9275C151.668 17.9275 152.217 17.9077 152.762 17.888C153.843 17.8491 154.909 17.8107 155.858 17.9275C156.75 18.1032 157.642 18.5426 157.642 19.6851C157.642 20.8275 157.196 21.5306 156.037 21.7063C154.966 21.8235 153.895 21.7845 152.825 21.7454ZM110.091 14.3246C110.894 16.8733 111.675 19.4 112.456 21.9268L112.456 21.9271L112.456 21.9276L112.456 21.9282L112.456 21.9288L112.457 21.9294C113.237 24.4549 114.017 26.9805 114.82 29.528H115.087C115.89 26.9794 116.671 24.4529 117.452 21.9263C118.232 19.3997 119.013 16.8732 119.816 14.3246H122.581C121.963 16.0711 121.383 17.8176 120.805 19.5555C120.133 21.5777 119.465 23.5883 118.745 25.5734C118.483 26.3794 118.198 27.1735 117.91 27.9732C117.413 29.3534 116.91 30.75 116.515 32.2523C116.285 33.3833 115.464 33.3498 114.672 33.3175C114.541 33.3122 114.411 33.3069 114.284 33.3069C113.571 33.3069 113.125 33.0432 112.946 32.2523C111.608 27.5946 110.181 23.1127 108.575 18.1035C107.95 19.6853 107.504 21.1793 107.147 22.4097C106.612 24.0794 106.099 25.7052 105.586 27.331C105.073 28.9568 104.56 30.5826 104.025 32.2523C103.846 32.9553 103.4 33.3069 102.687 33.3069C102.465 33.2523 102.209 33.274 101.953 33.2956C101.385 33.3437 100.819 33.3916 100.635 32.6038C99.6086 29.5719 98.6273 26.562 97.6459 23.5521C96.6645 20.5422 95.6832 17.5323 94.6572 14.5004C94.7617 14.5004 94.805 14.4401 94.8409 14.3901C94.8663 14.3548 94.8879 14.3246 94.9249 14.3246C97.4229 14.1489 97.6013 14.1489 98.315 16.5216C98.4746 17.0248 98.6342 17.5267 98.7936 18.0276C99.9699 21.7265 101.13 25.3735 102.151 29.0886C102.151 29.1724 102.192 29.2363 102.244 29.3183C102.301 29.4082 102.372 29.5199 102.419 29.7038C103.159 27.2249 103.926 24.7999 104.691 22.384L104.691 22.3838L104.691 22.3837L104.691 22.3836L104.691 22.3834L104.691 22.3832C105.309 20.4312 105.925 18.4852 106.523 16.5216C106.684 16.086 106.802 15.7317 106.898 15.4441C107.113 14.8021 107.217 14.4924 107.431 14.3528C107.631 14.2227 107.927 14.2402 108.498 14.274C108.868 14.2959 109.353 14.3246 110.002 14.3246H110.091ZM197.432 28.4734L197.432 28.473C197.031 28.0337 196.629 27.5945 196.183 27.1552C191.901 30.0553 189.225 30.0553 186.905 27.331C185.121 25.2219 185.299 21.7066 187.173 19.6854C188.065 18.6308 189.225 18.1035 190.563 17.9278C192.793 17.5762 194.577 18.6308 196.183 20.2127C196.386 19.9726 196.589 19.7371 196.79 19.5041L196.794 19.5005L196.795 19.4988L196.796 19.4978C197.476 18.7094 198.132 17.9492 198.681 17.1368C194.934 12.9185 187.886 12.8307 183.961 16.6974C180.125 20.6521 180.125 27.331 184.853 31.1977C188.957 34.5372 195.202 34.0099 198.681 29.7917C198.235 29.3524 197.834 28.9131 197.433 28.4739L197.432 28.4734ZM60.4878 19.0703V33.1312H57.8114V14.4126C59.5957 13.9732 60.7555 14.4126 61.7368 15.8187C63.6023 18.5453 65.63 21.272 67.738 24.1065L67.7381 24.1066L67.7384 24.107C68.7556 25.4747 69.7914 26.8676 70.8368 28.2977V14.2368H73.5132V32.8675C71.6397 33.4827 71.1936 33.1312 70.123 31.7251C69.6463 31.0811 69.1717 30.4413 68.6992 29.8042L68.6803 29.7787L68.6581 29.7488L68.6508 29.739C66.045 26.2261 63.5024 22.7984 61.0231 19.246C60.938 19.246 60.8732 19.206 60.7899 19.1547C60.6987 19.0983 60.5852 19.0283 60.3986 18.9824L60.4878 19.0703ZM81.4532 24.87H90.5531L90.4639 24.7822V24.7821C90.4639 23.9033 90.4639 23.1124 90.6423 22.0579H81.5424V16.4335H91.8021V14.1486H78.7767V32.9551H91.9805V30.4944H81.4532V24.87ZM180.303 14.1488L180.481 14.4124C180.66 16.8145 179.53 18.0156 177.091 18.0156H174.861V32.9553H170.489V18.0156H165.939C164.869 18.0156 164.601 17.7519 164.601 16.6973C164.601 14.9397 165.493 14.0609 167.277 14.0609H180.303V14.1488ZM124.38 29.3662C124.231 29.638 124.075 29.9238 123.919 30.2311H123.741C126.417 32.6917 129.54 33.6584 133.019 33.3948C135.16 33.1312 137.123 32.0766 137.837 30.0553C138.907 27.1553 138.283 24.6946 134.625 23.2885C133.733 22.937 132.863 22.6075 131.993 22.2779C131.123 21.9484 130.254 21.6188 129.361 21.2673C128.291 20.8279 127.756 20.0369 128.023 18.9824C128.291 18.2793 129.005 17.6641 129.629 17.2247C130.075 16.9611 130.789 16.7853 131.413 16.9611C132.55 17.1291 133.687 17.4398 134.847 17.7568C135.508 17.9374 136.176 18.1199 136.855 18.2793C137.059 17.9284 137.234 17.5488 137.429 17.1243C137.576 16.8048 137.734 16.4597 137.926 16.0823C135.16 14.5004 132.216 13.7974 129.005 14.6762C126.685 15.2035 125.258 16.7853 125.079 18.543C124.811 21.6188 125.971 23.0249 128.469 24.0794C129.073 24.2893 129.69 24.4852 130.317 24.6838C131.264 24.9843 132.231 25.2909 133.198 25.6613C134.179 26.1007 135.071 26.628 135.25 27.9462C135.428 29.3523 134.179 30.4947 132.305 30.6705C129.451 30.8463 127.131 29.7917 125.079 27.9462C124.905 28.4034 124.655 28.8606 124.38 29.3662Z" fill="url(#paint0_linear_546_968)"/>
<defs>
<linearGradient id="paint0_linear_546_968" x1="99.3406" y1="0.210937" x2="99.3406" y2="47.3017" gradientUnits="userSpaceOnUse">
<stop stop-color="#DCE5FF"/>
<stop offset="1" stop-color="white"/>
</linearGradient>
</defs>
</svg>
