<svg width="206" height="50" viewBox="0 0 206 50" fill="none" xmlns="http://www.w3.org/2000/svg">
<path fill-rule="evenodd" clip-rule="evenodd" d="M12.043 0.117188H36.0443L48.0873 12.3935H24.086L24.0012 12.4806V12.3935L12.044 0.118204L24.0012 12.4806H0L12.043 0.117188ZM24.0012 37.1206H48.0024L36.0442 49.3969L11.9582 49.397L0 37.1204V12.4806L23.9164 12.4806L12.0005 24.7136L12.043 24.757V24.8442L24.0012 37.1206ZM36.0443 24.7572L35.9594 24.757L24.0012 12.4806L48.0024 12.4806L36.0443 24.7572ZM36.0443 24.7572H36.1291L48.0873 37.0335H24.086L36.0443 24.7572ZM63.3535 28.7621C63.0142 29.1104 62.5054 29.2845 61.9117 29.2845L61.8269 29.3716C60.9788 29.3716 60.3003 29.0233 59.9611 28.3268C59.6218 27.5432 59.4522 26.4984 59.4522 25.1924V24.8442C59.3674 23.7994 59.537 22.7546 59.9611 21.7968C60.3003 21.0132 60.894 20.665 61.8269 20.665C62.5054 20.665 62.9294 20.9262 63.2687 21.3615C63.6079 21.8839 63.7775 22.5804 63.7775 23.1899L68.1876 23.1028C68.2725 21.4486 67.6788 19.7072 66.4914 18.5754C65.3041 17.4435 63.7775 16.9211 61.8269 16.9211C59.537 16.9211 57.756 17.6176 56.4838 19.0978C55.2117 20.5779 54.618 22.4934 54.618 24.8442V25.1924C54.4484 27.282 55.2117 29.2845 56.4838 30.9388C57.756 32.3319 59.537 33.1155 61.9117 33.1155C63.6079 33.1155 65.2193 32.5931 66.4914 31.4612C67.6788 30.4164 68.3573 28.8492 68.2725 27.1949H63.8623C63.8623 27.8915 63.6927 28.4139 63.3535 28.7621ZM77.0927 21.3615H78.8737L79.3826 16.9211C78.8737 16.747 78.4497 16.747 78.0256 16.747C77.3472 16.747 76.6687 17.0082 76.1598 17.4435C75.5661 17.9659 75.1421 18.5754 74.8877 19.359L74.718 17.0082H70.2231V32.7672H74.9725V22.4063C75.1421 22.058 75.3965 21.7968 75.7358 21.6227C76.075 21.4486 76.5839 21.3615 77.0927 21.3615ZM88.0332 25.889L87.9484 25.8019L87.7788 25.7148L85.4041 16.9211H80.3155L85.6585 32.8543L85.3193 33.8991C85.1497 34.3344 84.8953 34.6827 84.556 34.9439C84.2168 35.2051 83.7079 35.2921 82.9446 35.2921L82.6902 35.2051H82.4358L81.8421 38.6877C82.4358 38.8619 82.8598 38.9489 83.1143 38.9489C83.3687 39.036 83.7079 39.036 84.132 39.036C85.7434 39.036 86.9307 38.6877 87.694 37.9041C88.4573 37.1205 89.051 36.1628 89.5598 35.0309L95.6662 17.0082H90.5775L88.0332 25.889ZM105.759 21.7098C106.183 22.4934 106.352 23.6252 106.352 24.9312L106.267 25.0183V25.2795C106.352 26.3243 106.183 27.282 105.759 28.2397C105.419 28.9363 104.826 29.2845 103.978 29.2845C103.554 29.2845 103.045 29.1975 102.621 29.0233C102.281 28.8492 101.772 28.2397 101.772 28.2397V21.6227C101.942 21.2744 102.281 20.9262 102.621 20.752C102.96 20.5779 103.469 20.4908 103.978 20.4908C104.741 20.4908 105.419 20.9262 105.759 21.7098ZM109.575 30.8517C110.593 29.4587 111.102 27.5432 111.102 25.1924V25.0183C111.186 22.9287 110.678 20.8391 109.575 19.0978C108.557 17.6176 107.031 16.834 105.165 16.834C103.723 16.747 102.366 17.5306 101.603 18.8366L101.433 17.0952H96.9383V38.7748H101.688V31.3741C102.536 32.4189 103.808 33.0284 105.165 33.0284C106.946 33.0284 108.557 32.2448 109.575 30.8517ZM118.904 17.0082V13.0902L118.819 13.1772H113.985V17.0952H111.865V20.4908H113.985V27.7173C113.985 29.6328 114.409 30.9388 115.257 31.8095C116.021 32.6801 117.208 33.1155 118.819 33.1155C119.837 33.1155 120.855 33.0284 121.788 32.7672L121.448 29.1104C121.024 29.1975 120.6 29.1975 120.091 29.1975C119.837 29.1975 119.498 29.1104 119.243 28.8492C118.989 28.588 118.904 28.1527 118.904 27.6303V20.4038H121.533V17.0082H118.904ZM128.064 28.1527C127.64 27.3691 127.47 26.3243 127.47 25.0183V24.67C127.47 23.4511 127.64 22.4063 128.064 21.6227C128.488 20.8391 129.166 20.4908 130.099 20.4908C131.032 20.4908 131.71 20.8391 132.135 21.6227C132.559 22.5804 132.728 23.6252 132.728 24.67V25.0183C132.728 26.3243 132.559 27.3691 132.135 28.1527C131.71 28.9363 131.032 29.2845 130.099 29.2845C129.166 29.2845 128.488 28.9363 128.064 28.1527ZM124.671 19.0107C123.314 20.5779 122.636 22.6675 122.721 24.7571H122.636V25.1054C122.551 27.1949 123.229 29.2845 124.586 30.8517C125.943 32.2448 127.809 33.0284 130.099 33.0284C132.389 33.0284 134.255 32.3319 135.527 30.8517C136.799 29.3716 137.478 27.4561 137.478 25.1054V24.7571C137.562 22.6675 136.884 20.5779 135.527 19.0107C134.255 17.5306 132.389 16.747 130.099 16.747C127.809 16.747 125.943 17.5306 124.671 19.0107ZM144.1 17.0952L144.093 17.0082L144.262 17.0952H144.1ZM144.1 17.0952H139.767V32.8543H144.517V21.5356C145.026 20.9262 145.789 20.5779 146.552 20.5779C147.316 20.5779 147.824 20.752 148.164 21.1003C148.503 21.4486 148.673 22.1451 148.673 23.0158V32.7672H153.422V23.0158C153.422 20.8391 152.998 19.2719 152.15 18.2271C151.302 17.2694 150.114 16.747 148.588 16.747C147.74 16.6599 146.892 16.9211 146.128 17.3564C145.365 17.7918 144.771 18.4012 144.262 19.1848L144.1 17.0952ZM161.14 21.2744C161.479 20.752 161.988 20.4908 162.666 20.4908C163.43 20.4908 163.854 20.665 164.193 21.1003C164.532 21.5356 164.702 22.1451 164.702 22.9287V23.277H160.546C160.631 22.4063 160.8 21.7968 161.14 21.2744ZM157.578 30.8517C158.935 32.3319 160.716 33.0284 163.005 33.0284V33.1155C164.193 33.1155 165.295 32.9413 166.398 32.5931C167.331 32.2448 168.264 31.8095 169.027 31.2871L167.924 28.3268C166.567 29.0233 165.126 29.2845 163.684 29.2845C162.836 29.2845 162.073 29.0233 161.564 28.5009C160.97 27.9785 160.716 27.282 160.546 26.4113H169.366V23.7994C169.451 21.971 168.857 20.0555 167.585 18.6624C166.398 17.3564 164.786 16.747 162.666 16.747C160.376 16.747 158.68 17.5306 157.408 19.0107C156.136 20.4908 155.542 22.4063 155.542 24.8442V25.3666C155.457 27.3691 156.221 29.3716 157.578 30.8517ZM184.632 26.1501H184.547H184.462L181.833 17.0082H178.78L176.236 26.1501H176.151L174.455 17.0082H170.045L173.692 32.7672H177.762L180.307 24.4088H180.392L182.936 32.7672H187.007L190.654 17.0082H186.243L184.632 26.1501ZM199.813 27.282C200.152 27.6303 200.407 28.3268 200.407 28.3268V28.4139C200.407 28.9363 200.237 29.2845 199.898 29.4587C199.559 29.7199 199.05 29.8069 198.456 29.8069C197.693 29.8069 197.099 29.6328 196.675 29.2845C196.251 29.0233 195.997 28.5009 195.997 27.7173L191.671 27.8044C191.671 29.1104 192.265 30.4164 193.452 31.4612C194.64 32.5931 196.251 33.1155 198.371 33.1155C200.068 33.2025 201.764 32.6801 203.206 31.7224C204.478 30.8517 205.071 29.6328 205.071 28.2397C205.156 26.9337 204.647 25.8019 203.714 25.0183C202.442 24.1476 201.085 23.6252 199.559 23.364C198.711 23.277 197.947 23.0158 197.184 22.5804C196.845 22.3192 196.59 21.971 196.59 21.5356C196.59 21.1003 196.76 20.752 197.099 20.4908C197.438 20.1426 197.862 20.0555 198.371 20.0555C199.05 20.0555 199.474 20.2296 199.813 20.5779C200.152 20.9262 200.322 21.3615 200.322 21.971L204.987 21.8839C204.987 20.4038 204.308 19.0107 203.206 18.2271C201.933 17.2694 200.322 16.834 198.287 16.834C196.421 16.834 194.809 17.2694 193.707 18.2271C192.604 19.0107 192.011 20.3167 192.011 21.7098C192.011 22.9287 192.435 24.0606 193.368 24.8442C194.555 25.7148 195.997 26.2372 197.438 26.4984C198.287 26.5855 199.05 26.8467 199.813 27.282Z" fill="url(#paint0_linear_546_943)"/>
<defs>
<linearGradient id="paint0_linear_546_943" x1="102.54" y1="0.117187" x2="102.54" y2="49.397" gradientUnits="userSpaceOnUse">
<stop stop-color="#DCE5FF"/>
<stop offset="1" stop-color="white"/>
</linearGradient>
</defs>
</svg>
