<svg width="196" height="38" viewBox="0 0 196 38" fill="none" xmlns="http://www.w3.org/2000/svg">
<path fill-rule="evenodd" clip-rule="evenodd" d="M32.0362 0.366611C34.4883 0.543493 36.4543 2.53342 36.631 4.98766C36.8298 7.92832 34.5325 10.3605 31.6607 10.3383C30.269 10.3383 29.0098 9.78557 28.1041 8.85697C27.331 8.06099 26.2927 7.59667 25.1882 7.59667H24.8348C23.7303 7.59667 22.692 8.06099 21.9188 8.85697C21.0131 9.76346 19.754 10.3383 18.3623 10.3383C16.9706 10.3383 15.7114 9.78557 14.8057 8.85697C14.0326 8.06099 12.9943 7.59667 11.8898 7.59667H11.4922C10.3876 7.59667 9.34942 8.06099 8.57625 8.83485L8.53208 8.87908L8.4879 8.92326C7.71473 9.69712 7.25084 10.7363 7.25084 11.8418V12.2398C7.25084 13.3453 7.71473 14.3845 8.50999 15.1584C9.41569 16.0649 9.99007 17.3252 9.99007 18.7181C9.99007 20.1111 9.43777 21.3714 8.50999 22.2779C7.71473 23.0518 7.25084 24.0909 7.25084 25.1964V25.6387C7.25084 26.7442 7.71473 27.7833 8.50999 28.5572L8.55417 28.6014C9.32734 29.3974 10.3876 29.8175 11.4701 29.8175H11.934C13.0164 29.8175 14.0547 29.3532 14.8278 28.5793C15.7335 27.6728 16.9927 27.12 18.3623 27.12C21.2561 27.12 23.5535 29.5522 23.3547 32.4928C23.178 34.9692 21.1898 36.9591 18.7378 37.136C17.1694 37.2465 15.7335 36.6496 14.7395 35.6104C13.9884 34.8144 12.9723 34.3501 11.8898 34.3501H11.4701C10.3876 34.3501 9.37151 34.8365 8.62043 35.6104C7.67056 36.6053 6.32306 37.2023 4.8209 37.1581C2.23632 37.0697 0.115653 34.9692 0.00520117 32.3602C-0.0610697 30.8788 0.535371 29.5301 1.50735 28.5793C2.28051 27.8276 2.74441 26.8105 2.74441 25.7271V25.2186C2.74441 24.113 2.28051 23.0739 1.48525 22.3C0.579552 21.3935 0.00520117 20.1332 0.00520117 18.7402C0.00520117 17.3473 0.557459 16.087 1.48525 15.1805C2.28051 14.4066 2.74441 13.3675 2.74441 12.2619V11.8861C2.74441 10.8027 2.32469 9.74134 1.52944 8.9896L1.46316 8.92326C-0.569149 6.88915 -0.480787 3.52838 1.70616 1.60479C3.51757 -0.00926346 6.27888 -0.0534837 8.15654 1.47212C8.31115 1.60479 8.46582 1.75956 8.62043 1.91433C9.37151 2.68819 10.4098 3.10828 11.4922 3.10828H11.8677C12.9723 3.10828 14.0105 2.64397 14.7836 1.848C15.6893 0.941478 16.9485 0.366611 18.3402 0.366611C19.7319 0.366611 20.991 0.919365 21.8967 1.848C22.6699 2.64397 23.7082 3.10828 24.8127 3.10828H25.2103C26.2927 3.10828 27.3089 2.64397 28.06 1.87011C29.054 0.853036 30.4678 0.25606 32.0362 0.366611ZM93.5756 6.85687C94.7574 8.0398 94.7574 9.95768 93.5756 11.1406C92.3933 12.3235 90.4774 12.3235 89.2956 11.1406C88.1138 9.95768 88.1138 8.0398 89.2956 6.85687C90.4774 5.67394 92.3933 5.67394 93.5756 6.85687ZM54.6131 26.478C51.0125 26.478 48.7812 23.2499 48.7812 18.7836C48.7812 14.3616 50.659 11.0671 54.5909 11.0671C57.1753 11.0671 58.8763 12.7254 59.1859 14.9143H65.1945C64.8849 12.1948 63.67 9.80688 61.5495 8.21494C59.8264 6.8883 57.4406 6.07026 54.6131 6.07026C47.3674 6.07026 42.6622 11.5536 42.6622 18.7836C42.6622 26.0579 47.5221 31.3865 54.6574 31.3865C58.081 31.3865 60.5772 30.4358 62.433 28.6227C64.0896 27.0308 65.1945 24.8197 65.3488 22.4097H59.3402C59.0755 24.7755 57.308 26.478 54.6131 26.478ZM76.438 12.9911C70.8712 12.9911 67.138 16.971 67.138 22.2111C67.138 27.4512 70.8712 31.4311 76.438 31.4311C82.0487 31.4311 85.7158 27.4512 85.7158 22.2111C85.7158 16.971 82.0487 12.9911 76.438 12.9911ZM76.4158 27.4733C74.0078 27.4733 72.7486 25.3729 72.7486 22.2111C72.7486 19.0493 74.0078 16.9047 76.4158 16.9047C78.8238 16.9047 80.1268 19.0493 80.1268 22.2111C80.1051 25.3729 78.8238 27.4733 76.4158 27.4733ZM86.6212 17.3695H88.9404V30.8788H94.4634V13.4559H86.6212V17.3695ZM102.681 15.8436C103.962 13.9643 105.641 12.9472 108.049 12.9472C111.849 12.9472 114.102 15.6668 114.102 19.5361V30.8565H108.557V20.6637C108.557 18.8285 107.652 17.5683 105.84 17.5683C104.007 17.5683 102.792 19.0939 102.792 21.2385V30.8565H97.2471V13.4558H102.571V15.8436H102.681ZM127.092 6.55756H116.732V30.8568H126.716C129.765 30.8568 132.217 30.0829 134.117 28.6457C136.834 26.5674 138.336 23.1403 138.336 18.8509C138.336 11.4218 133.807 6.55756 127.092 6.55756ZM126.275 25.8156H122.74V11.5987H126.341C130.118 11.5987 132.261 14.4509 132.261 18.873C132.239 23.3171 130.207 25.8156 126.275 25.8156ZM148.806 13.08C151.28 13.08 153.246 13.8981 154.748 15.2468C156.824 17.1483 157.841 20.1553 157.818 23.7151H145.315C145.669 26.0587 146.95 27.518 149.225 27.518C150.683 27.518 151.633 26.8768 152.119 25.7934H157.509C157.133 27.3632 156.117 28.8447 154.593 29.9059C153.135 30.923 151.368 31.4979 149.159 31.4979C143.415 31.4979 139.881 27.518 139.881 22.2558C139.881 17.0598 143.504 13.08 148.806 13.08ZM148.894 16.9936C146.795 16.9936 145.713 18.3201 145.337 20.3985H152.185C151.987 18.3201 150.683 16.9936 148.894 16.9936ZM167.978 19.8472L167.977 19.8471C166.093 19.5254 164.555 19.2628 164.555 18.1871C164.555 17.1037 165.615 16.5952 166.963 16.5952C168.487 16.5952 169.548 17.0816 169.747 18.6293H174.849C174.584 15.2022 171.934 13.0576 167.007 13.0576C162.898 13.0576 159.496 14.959 159.496 18.6293C159.496 22.7197 162.722 23.5157 165.748 24.0242C165.971 24.0625 166.192 24.0987 166.409 24.1344C168.452 24.4691 170.166 24.7501 170.166 26.1689C170.166 27.2965 169.106 27.8935 167.449 27.8935C165.615 27.8935 164.467 27.0533 164.246 25.3067H159.011C159.187 29.1538 162.368 31.4975 167.471 31.4975C172.022 31.4975 175.379 29.5297 175.379 25.7267C175.402 21.2826 171.801 20.4866 168.73 19.9781C168.475 19.9321 168.224 19.8892 167.978 19.8472ZM194.533 13.456L188.414 20.0006L195.24 30.8788H188.834L184.659 23.7593L182.98 25.5282V30.8788H177.523V6.55756H182.98V19.3373L188.149 13.456H194.533ZM18.3186 20.3988C19.2458 20.3988 19.9974 19.6464 19.9974 18.7184C19.9974 17.7903 19.2458 17.038 18.3186 17.038C17.3914 17.038 16.6397 17.7903 16.6397 18.7184C16.6397 19.6464 17.3914 20.3988 18.3186 20.3988ZM33.3842 18.7184C33.3842 19.6464 32.6325 20.3988 31.7053 20.3988C30.7781 20.3988 30.0264 19.6464 30.0264 18.7184C30.0264 17.7903 30.7781 17.038 31.7053 17.038C32.6325 17.038 33.3842 17.7903 33.3842 18.7184ZM31.7053 33.8197C32.6325 33.8197 33.3842 33.0673 33.3842 32.1393C33.3842 31.2113 32.6325 30.4589 31.7053 30.4589C30.7781 30.4589 30.0264 31.2113 30.0264 32.1393C30.0264 33.0673 30.7781 33.8197 31.7053 33.8197Z" fill="url(#paint0_linear_546_978)"/>
<defs>
<linearGradient id="paint0_linear_546_978" x1="97.6199" y1="0.353516" x2="97.6199" y2="37.1604" gradientUnits="userSpaceOnUse">
<stop stop-color="#DCE5FF"/>
<stop offset="1" stop-color="white"/>
</linearGradient>
</defs>
</svg>
