<svg width="1448" height="1210" viewBox="0 0 1448 1210" fill="none" xmlns="http://www.w3.org/2000/svg">
<mask id="mask0_13_5512" style="mask-type:alpha" maskUnits="userSpaceOnUse" x="4" y="0" width="1440" height="1210">
<rect x="4" width="1440" height="1210" fill="#D9D9D9"/>
</mask>
<g mask="url(#mask0_13_5512)">
<rect width="1440" height="1210" transform="translate(4)" fill="url(#paint0_linear_13_5512)"/>
<g opacity="0.1">
<mask id="mask1_13_5512" style="mask-type:alpha" maskUnits="userSpaceOnUse" x="-106" y="87" width="1660" height="1016">
<rect x="-106" y="87.6553" width="1660" height="1014.44" fill="url(#paint1_radial_13_5512)"/>
</mask>
<g mask="url(#mask1_13_5512)">
<path d="M911.322 586.458C911.322 632.229 887.125 689.791 854.225 727.862C837.778 746.895 819.204 760.998 800.458 766.353C781.753 771.695 762.835 768.343 745.569 752.375C728.083 736.203 704.579 723.579 679.685 712.281C668.184 707.061 656.374 702.118 644.714 697.239C643.752 696.836 642.79 696.434 641.83 696.032C629.235 690.758 616.86 685.537 605.266 680.089C582.062 669.184 562.07 657.405 549.75 642.556C537.469 627.754 532.787 609.876 540.261 586.635C547.767 563.293 558.478 547.299 571.588 535.268C584.707 523.229 600.254 515.133 617.481 507.624C623.425 505.033 629.568 502.513 635.877 499.925C666.112 487.521 700.141 473.561 734.214 442.803C754.648 424.357 775.884 418.414 796.245 421.241C816.629 424.072 836.212 435.705 853.278 452.555C887.421 486.267 911.322 540.691 911.322 586.458Z" stroke="#1F1B26" stroke-width="1.15278"/>
<path d="M950.516 584.731C950.516 640.204 921.257 709.952 881.48 756.082C861.593 779.145 839.127 796.245 816.44 802.74C793.794 809.222 770.886 805.153 749.987 785.783C728.868 766.208 700.477 750.925 670.393 737.241C656.494 730.919 642.222 724.933 628.13 719.023C626.967 718.535 625.805 718.048 624.645 717.562C609.423 711.174 594.464 704.849 580.449 698.248C552.404 685.04 528.22 670.763 513.312 652.756C498.442 634.796 492.775 613.097 501.821 584.907C510.899 556.616 523.855 537.225 539.716 522.638C555.586 508.042 574.392 498.23 595.215 489.133C602.402 485.994 609.829 482.94 617.455 479.805C653.996 464.781 695.102 447.881 736.265 410.641C760.985 388.279 786.685 381.066 811.331 384.496C836.001 387.929 859.691 402.037 880.329 422.458C921.615 463.311 950.516 529.261 950.516 584.731Z" stroke="#1F1B26" stroke-width="1.15278"/>
<path d="M996.627 582.732C996.627 649.422 961.414 733.26 913.546 788.709C889.613 816.43 862.567 836.998 835.243 844.81C807.96 852.611 780.358 847.711 755.185 824.407C729.793 800.899 695.651 782.541 659.461 766.099C642.741 758.502 625.572 751.31 608.617 744.208C607.219 743.622 605.822 743.037 604.427 742.453C586.114 734.777 568.116 727.176 551.253 719.243C517.511 703.37 488.397 686.206 470.443 664.546C452.529 642.934 445.704 616.82 456.598 582.908C467.525 548.896 483.122 525.577 502.22 508.033C521.327 490.481 543.965 478.684 569.02 467.752C577.67 463.978 586.607 460.308 595.782 456.54C639.742 438.487 689.173 418.187 738.678 373.454C768.44 346.561 799.392 337.881 829.081 342.007C858.793 346.137 887.315 363.106 912.154 387.656C961.844 436.767 996.627 516.044 996.627 582.732Z" stroke="#1F1B26" stroke-width="1.15278"/>
<path d="M1036.97 580.948C1036.97 657.644 996.551 754.049 941.603 817.808C914.13 849.685 883.076 873.344 851.695 882.332C820.355 891.308 788.646 885.668 759.734 858.856C730.602 831.84 691.429 810.738 649.896 791.836C630.708 783.104 611.005 774.836 591.546 766.671C589.941 765.997 588.338 765.325 586.737 764.652C565.719 755.828 545.061 747.088 525.707 737.968C486.981 719.719 453.551 699.979 432.934 675.062C412.356 650.193 404.516 620.139 417.028 581.124C429.572 542.008 447.481 515.186 469.411 495.006C491.351 474.818 517.342 461.25 546.1 448.681C556.029 444.341 566.288 440.121 576.819 435.789C627.27 415.034 683.986 391.703 740.79 340.285C774.963 309.352 810.511 299.363 844.611 304.111C878.735 308.862 911.485 328.383 940.001 356.616C997.044 413.091 1036.97 504.254 1036.97 580.948Z" stroke="#1F1B26" stroke-width="1.15278"/>
<path d="M1085.39 578.84C1085.39 667.361 1038.72 778.617 975.271 852.198C943.551 888.987 907.688 916.299 871.438 926.677C835.23 937.043 798.591 930.528 765.192 899.569C731.572 868.406 686.361 844.063 638.417 822.254C616.268 812.179 593.525 802.64 571.062 793.219C569.209 792.441 567.358 791.665 565.509 790.889C541.245 780.707 517.396 770.622 495.05 760.097C450.343 739.04 411.737 716.257 387.922 687.49C364.147 658.772 355.091 624.063 369.544 579.017C384.03 533.87 404.711 502.908 430.04 479.612C455.378 456.307 485.394 440.648 518.595 426.143C530.06 421.135 541.904 416.265 554.062 411.266C612.303 387.318 677.76 360.404 743.324 301.087C782.791 265.38 823.854 253.843 863.248 259.326C902.667 264.812 940.49 287.349 973.418 319.933C1039.28 385.112 1085.39 490.322 1085.39 578.84Z" stroke="#1F1B26" stroke-width="1.15278"/>
<path d="M1140.72 576.41C1140.72 678.574 1086.9 806.966 1013.75 891.881C977.174 934.336 935.815 965.864 894.001 977.845C852.228 989.813 809.957 982.289 771.43 946.547C732.681 910.599 680.57 882.516 625.298 857.352C599.765 845.728 573.546 834.722 547.649 823.851C545.512 822.954 543.378 822.058 541.247 821.163C513.275 809.414 485.778 797.778 460.014 785.633C408.472 761.336 363.948 735.04 336.479 701.832C309.05 668.671 298.604 628.591 315.276 576.586C331.98 524.48 355.831 488.741 385.044 461.85C414.267 434.95 448.881 416.877 487.161 400.139C500.381 394.359 514.037 388.74 528.055 382.971C595.198 355.339 670.645 324.29 746.219 255.859C791.737 214.643 839.102 201.321 884.547 207.651C930.016 213.984 973.637 240.001 1011.61 277.607C1087.56 352.829 1140.72 474.248 1140.72 576.41Z" stroke="#1F1B26" stroke-width="1.15278"/>
<path d="M1209.89 573.385C1209.89 692.529 1147.14 842.246 1061.85 941.264C1019.2 990.771 970.975 1027.55 922.206 1041.52C873.477 1055.48 824.166 1046.7 779.227 1005.01C734.068 963.107 673.331 930.368 608.9 901.03C579.137 887.478 548.573 874.646 518.383 861.971C515.893 860.926 513.405 859.881 510.921 858.838C478.312 845.14 446.256 831.572 416.221 817.411C356.133 789.081 304.213 758.415 272.177 719.68C240.181 680.992 227.997 634.227 247.442 573.562C266.919 512.796 294.732 471.113 328.801 439.747C362.878 408.373 403.242 387.295 447.869 367.78C463.282 361.04 479.204 354.487 495.546 347.76C573.818 315.544 661.753 279.35 749.839 199.576C802.92 151.504 858.164 135.961 911.171 143.345C964.203 150.733 1015.07 181.081 1059.35 224.936C1147.9 312.656 1209.89 454.245 1209.89 573.385Z" stroke="#1F1B26" stroke-width="1.15278"/>
<path d="M1275.6 570.523C1275.6 705.736 1204.36 875.635 1107.54 988.001C1059.13 1044.18 1004.38 1085.92 949 1101.79C893.664 1117.64 837.663 1107.67 786.635 1060.34C735.385 1012.8 666.454 975.657 593.322 942.369C559.538 926.991 524.845 912.431 490.576 898.048C487.751 896.862 484.929 895.678 482.11 894.494C445.098 878.951 408.711 863.555 374.616 847.486C306.412 815.34 247.464 780.537 211.09 736.571C174.755 692.651 160.921 639.561 183 570.699C205.111 501.738 236.688 454.428 275.369 418.828C314.059 383.219 359.884 359.299 410.541 337.154C428.039 329.505 446.112 322.068 464.663 314.435C553.506 277.88 653.304 236.817 753.277 146.308C813.544 91.7478 876.272 74.1021 936.464 82.4846C996.681 90.8706 1054.44 125.317 1104.7 175.086C1205.23 274.635 1275.6 435.314 1275.6 570.523Z" stroke="#1F1B26" stroke-width="1.15278"/>
<path d="M1358.6 566.903C1358.6 722.429 1276.64 917.843 1165.26 1047.08C1109.57 1111.7 1046.57 1159.72 982.844 1177.97C919.161 1196.21 854.712 1184.73 795.99 1130.28C737.048 1075.62 657.766 1032.91 573.643 994.625C534.784 976.941 494.879 960.197 455.461 943.657C452.209 942.292 448.961 940.929 445.717 939.567C403.142 921.692 361.283 903.985 322.062 885.504C243.604 848.534 175.781 808.502 133.926 757.922C92.1101 707.389 76.1905 646.301 101.598 567.079C127.037 487.757 163.367 433.335 207.875 392.381C252.391 351.419 305.114 323.905 363.389 298.436C383.519 289.638 404.31 281.085 425.651 272.306C527.847 230.265 642.632 183.046 757.62 78.9681C826.962 16.2049 899.144 -4.09885 968.412 5.5455C1037.7 15.1932 1104.16 54.8214 1161.98 112.067C1277.64 226.568 1358.6 411.379 1358.6 566.903Z" stroke="#1F1B26" stroke-width="1.15278"/>
<path d="M1436.99 563.5C1436.99 738.127 1344.91 957.531 1219.77 1102.64C1157.2 1175.19 1086.42 1229.11 1014.81 1249.6C943.243 1270.09 870.814 1257.2 804.827 1196.05C738.62 1134.69 649.562 1086.74 555.059 1043.76C511.402 1023.91 466.571 1005.11 422.285 986.538C418.635 985.008 414.989 983.479 411.347 981.951C363.517 961.883 316.491 942.002 272.428 921.253C184.286 879.746 108.08 834.798 61.0495 777.999C14.0578 721.248 -3.83119 652.64 24.7188 563.676C53.3009 474.611 94.1211 413.502 144.131 367.514C194.15 321.519 253.389 290.625 318.858 262.03C341.474 252.152 364.832 242.549 388.807 232.693C503.616 185.495 632.553 132.488 761.722 15.6492C839.635 -54.8268 920.746 -77.6299 998.586 -66.7991C1076.45 -55.965 1151.12 -11.4645 1216.08 52.8108C1346.03 181.372 1436.99 388.875 1436.99 563.5Z" stroke="#1F1B26" stroke-width="1.15278"/>
<path d="M1516.53 560.043C1516.53 754.074 1414.18 997.85 1275.08 1159.07C1205.53 1239.68 1126.85 1299.6 1047.24 1322.37C967.679 1345.14 887.153 1330.82 813.794 1262.86C740.214 1194.7 641.237 1141.43 536.201 1093.68C487.682 1071.62 437.858 1050.74 388.639 1030.11C384.579 1028.41 380.522 1026.71 376.471 1025.01C323.31 1002.71 271.041 980.623 222.065 957.57C124.097 911.455 39.3845 861.511 -12.8985 798.396C-65.1424 735.328 -85.0297 659.081 -53.2907 560.219C-21.5194 461.258 23.8567 393.354 79.4502 342.253C135.053 291.144 200.903 256.818 273.672 225.047C298.81 214.072 324.774 203.403 351.422 192.452C479.027 140.014 622.326 81.1266 765.884 -48.6744C852.495 -126.986 942.666 -152.328 1029.2 -140.292C1115.77 -128.252 1198.77 -78.8023 1270.98 -7.38527C1415.42 135.459 1516.53 366.014 1516.53 560.043Z" stroke="#1F1B26" stroke-width="1.15278"/>
<path d="M1598.38 556.478C1598.38 770.52 1485.46 1039.43 1332 1217.28C1255.27 1306.2 1168.45 1372.3 1080.62 1397.42C992.824 1422.54 903.965 1406.73 823.02 1331.76C741.855 1256.58 632.67 1197.83 516.796 1145.16C463.267 1120.83 408.298 1097.79 353.995 1075.03C349.52 1073.15 345.05 1071.28 340.585 1069.41C281.937 1044.82 224.273 1020.45 170.242 995.022C62.1621 944.155 -31.3026 889.06 -88.9901 819.43C-146.638 749.847 -168.582 665.722 -133.561 556.655C-98.5086 447.487 -48.4445 372.577 12.8944 316.203C74.2422 259.82 146.895 221.953 227.175 186.909C254.91 174.802 283.554 163.032 312.953 150.953C453.726 93.1112 611.802 28.1605 770.167 -115.008C865.728 -201.399 965.221 -229.36 1060.71 -216.081C1156.22 -202.799 1247.8 -148.244 1327.47 -69.4627C1486.83 88.1115 1598.38 342.439 1598.38 556.478Z" stroke="#1F1B26" stroke-width="1.15278"/>
</g>
</g>
</g>
<defs>
<linearGradient id="paint0_linear_13_5512" x1="720" y1="0" x2="720" y2="1210" gradientUnits="userSpaceOnUse">
<stop stop-color="#DCE5FF"/>
<stop offset="1" stop-color="#FFFFF7"/>
</linearGradient>
<radialGradient id="paint1_radial_13_5512" cx="0" cy="0" r="1" gradientUnits="userSpaceOnUse" gradientTransform="translate(724 594.878) rotate(90) scale(507.222 830)">
<stop offset="0.659362" stop-color="#D9D9D9"/>
<stop offset="1" stop-color="#D9D9D9" stop-opacity="0"/>
</radialGradient>
</defs>
</svg>
