<svg width="219" height="219" viewBox="0 0 219 219" fill="none" xmlns="http://www.w3.org/2000/svg">
<circle cx="109.5" cy="109.5" r="109.5" fill="#141A1F"/>
<path d="M183.396 173.636L109.598 83.7373L109.451 135.614L183.396 173.636Z" fill="white"/>
<path d="M109.451 135.612L109.599 83.7363L35.248 172.49L109.451 135.612Z" fill="#0067E5"/>
<path d="M35.8085 45.6488L109.606 135.547L109.754 83.6709L35.8085 45.6488Z" fill="white"/>
<path d="M109.754 83.6724L109.606 135.548L183.957 46.7944L109.754 83.6724Z" fill="#0067E5"/>
<path d="M106.405 168.738L92.032 168.748V164.908C92.032 164.638 92.1352 164.406 92.3486 164.205C92.5694 164.005 92.8338 163.905 93.1475 163.905H103.513C104.332 163.905 105.035 163.642 105.617 163.114C106.207 162.586 106.505 161.943 106.505 161.192V158.629C106.505 157.877 106.207 157.235 105.617 156.707C105.035 156.179 104.332 155.916 103.513 155.916H90.5364H90.4364V156.016V157.629V157.729H90.5364H103.513C103.797 157.729 104.031 157.819 104.221 157.998L104.221 157.998L104.222 157.999C104.421 158.179 104.516 158.388 104.516 158.629V161.192C104.516 161.433 104.421 161.642 104.222 161.822C104.032 161.994 103.798 162.082 103.513 162.082H93.1475C92.291 162.082 91.5575 162.359 90.9529 162.915C90.3482 163.463 90.0425 164.129 90.0425 164.908V170.462V170.562H90.1425H106.405H106.505V170.462V168.838V168.738L106.405 168.738ZM113.885 169.219L113.886 169.219C114.88 170.114 116.075 170.562 117.464 170.562H123.316C124.713 170.562 125.908 170.114 126.895 169.219C127.882 168.323 128.38 167.238 128.38 165.97V160.518C128.38 159.243 127.883 158.154 126.895 157.259C125.908 156.363 124.713 155.916 123.316 155.916H117.464C116.075 155.916 114.88 156.363 113.886 157.258L113.885 157.259C112.898 158.154 112.401 159.243 112.401 160.518V165.97C112.401 167.238 112.898 168.323 113.885 169.219ZM123.316 157.729C124.171 157.729 124.897 158.003 125.5 158.55C126.096 159.097 126.39 159.751 126.39 160.518V165.97C126.39 166.729 126.096 167.38 125.5 167.927C124.897 168.474 124.171 168.748 123.316 168.748H117.464C116.61 168.748 115.884 168.475 115.28 167.927C114.685 167.38 114.39 166.729 114.39 165.97V160.518C114.39 159.751 114.685 159.097 115.28 158.55C115.884 158.003 116.61 157.729 117.464 157.729H123.316Z" fill="white" stroke="white" stroke-width="0.2"/>
</svg>
