<svg width="1440" height="1206" viewBox="0 0 1440 1206" fill="none" xmlns="http://www.w3.org/2000/svg">
<g clip-path="url(#clip0_0_721)">
<rect width="1440" height="1206" fill="#141A1F"/>
<g opacity="0.25">
<path fill-rule="evenodd" clip-rule="evenodd" d="M67.5272 624.397C17.8525 621.737 -24.0236 559.719 -63.7264 529.747C-102.706 500.321 -196.175 668.207 -217.828 624.43C-242.527 574.495 -173.119 401.393 -115.882 368.372C-103.244 311.819 -284.152 185.337 -94.0349 149.518C-22.3967 136.021 -7.98294 217.208 46.8261 208.069C82.7135 202.085 188.016 149.518 203.94 193.005C219.863 236.492 175.663 289.86 203.938 329.755C232.123 369.524 324.828 404.66 309.784 456.226C294.608 508.244 208.088 465.943 162.401 495.08C119.215 522.621 118.674 627.137 67.5272 624.397Z" stroke="url(#paint0_linear_0_721)" stroke-width="2.3571"/>
<path fill-rule="evenodd" clip-rule="evenodd" d="M50.3403 598.414C3.60473 595.911 -20.0556 536.054 -57.4092 507.855C-94.0824 480.17 -197.759 639.631 -218.131 598.444C-241.369 551.464 -176.067 388.604 -122.216 357.537C-110.327 304.33 -256.428 209.737 -100.216 161.97C-51.726 142.433 2.01966 236.092 50.3613 221.034C98.7029 205.975 137.574 183.32 178.681 192.547C219.06 214.592 160.43 278.975 178.679 321.205C198.727 367.596 302.607 398.046 288.453 446.561C274.175 495.501 182.915 456.439 139.931 483.851C99.3005 509.762 98.4611 600.991 50.3403 598.414Z" stroke="url(#paint1_linear_0_721)" stroke-width="2.3571"/>
<path fill-rule="evenodd" clip-rule="evenodd" d="M46.4877 579.344C-0.247796 576.841 -24.25 511.461 -61.6036 483.262C-98.2767 455.577 -220.619 638.506 -240.991 597.319C-264.229 550.339 -198.927 387.479 -145.076 356.412C-133.187 303.204 -258.511 230.345 -102.299 182.579C-53.8092 163.042 -22.0108 231.988 29.9558 237.685C73.5632 242.466 98.6794 208.067 155.819 207.377C212.959 206.686 137.57 277.849 155.819 320.079C175.867 366.47 279.747 396.92 265.593 445.435C256.79 475.607 165.979 441.469 118.126 475.607C78.0461 504.199 94.6086 581.922 46.4877 579.344Z" stroke="url(#paint2_linear_0_721)" stroke-width="2.3571"/>
<path fill-rule="evenodd" clip-rule="evenodd" d="M40.9748 565.567C-5.76077 563.063 -23.072 493.753 -60.4256 465.554C-97.0987 437.869 -242.671 628.452 -263.043 587.265C-286.281 540.285 -220.979 377.425 -167.128 346.358C-155.239 293.151 -261.269 238.61 -105.057 190.844C-56.5668 171.307 -35.7969 243.008 16.1697 248.705C59.777 253.486 120.482 220.444 151.187 223.907C181.893 227.371 124.672 286.379 142.921 328.609C162.969 375.001 257.695 386.866 243.541 435.381C234.738 465.553 152.201 431.415 104.347 465.553C64.2672 494.145 89.0956 568.144 40.9748 565.567Z" stroke="url(#paint3_linear_0_721)" stroke-width="2.3571"/>
<path fill-rule="evenodd" clip-rule="evenodd" d="M32.7142 551.803C-7.3883 546.313 -26.0159 475.514 -63.3695 447.315C-100.043 419.63 -264.798 617.638 -285.17 576.451C-308.408 529.471 -243.106 366.611 -189.255 335.544C-177.366 282.337 -182.748 190.882 -127.184 180.03C-71.6193 169.177 -25.6291 269.985 18.8479 265.25C63.3248 260.514 109.288 235.176 134.679 237.697C160.069 240.218 116.064 286.403 120.794 317.795C129.331 374.451 235.568 376.052 221.414 424.567C212.611 454.739 135.674 421.229 87.8205 455.367C47.7407 483.959 80.8351 554.38 32.7142 551.803Z" stroke="url(#paint4_linear_0_721)" stroke-width="2.3571"/>
<path fill-rule="evenodd" clip-rule="evenodd" d="M29.7358 536.883C-12.9331 534.597 -30.1038 455.166 -64.2072 429.421C-99.9049 414.312 -250.302 592.677 -268.902 555.074C-290.117 512.182 -230.498 363.493 -181.333 335.129C-170.478 286.552 -267.282 236.757 -124.663 193.147C-80.3918 175.31 -34.1919 273.81 13.2529 279.011C53.0657 283.376 106.342 242.836 120.71 251.458C135.079 260.079 100.128 291.603 101.738 318.925C104.98 373.962 213.649 375.224 200.778 419.532C196.997 432.547 131.838 415.264 85.0631 441.575C40.978 466.372 73.6694 539.236 29.7358 536.883Z" stroke="url(#paint5_linear_0_721)" stroke-width="2.3571"/>
<path fill-rule="evenodd" clip-rule="evenodd" d="M25.6115 523.327C-11.9738 521.314 -25.0662 442.011 -55.8693 422.836C-83.4045 391.922 -201.634 538.067 -218.018 504.944C-227.558 485.657 -202.348 364.763 -159.041 339.779C-149.479 296.989 -184.954 223.799 -116.071 210.022C-77.075 194.311 -29.43 285.764 12.3621 290.346C47.4317 294.191 99.2709 261.103 107.017 266.076C114.763 271.048 88.8872 301.438 90.3051 325.505C93.1612 373.985 188.883 375.096 177.545 414.126C174.215 425.59 116.819 410.366 75.6169 433.542C36.7841 455.385 64.3109 525.4 25.6115 523.327Z" stroke="url(#paint6_linear_0_721)" stroke-width="2.3571"/>
<path fill-rule="evenodd" clip-rule="evenodd" d="M21.485 511.546C-13.2822 502.706 -18.5857 405.481 -76.3347 411.958C-117.236 422.824 -223.694 529.423 -240.078 496.3C-249.618 477.013 -224.408 356.119 -181.101 331.134C-171.539 288.344 -207.014 215.155 -138.131 201.378C-99.1349 185.666 -33.8783 296.491 7.91393 301.073C42.9835 304.918 87.7821 273.352 90.5554 281.702C93.3287 290.052 75.6102 311.131 76.7953 331.134C79.2957 373.337 155.251 374.244 159.375 406.654C160.882 418.497 109.733 404.782 68.5308 427.958C29.6981 449.801 55.0737 511.546 21.485 511.546Z" stroke="url(#paint7_linear_0_721)" stroke-width="2.3571"/>
<path fill-rule="evenodd" clip-rule="evenodd" d="M21.4837 499.17C-5.62302 495.045 -9.74795 425.511 -47.1955 405.758C-98.6069 378.64 -179.451 482.907 -188.861 472.485C-200.405 459.7 -176.316 360.261 -141.646 340.26C-133.991 306.004 -162.391 247.411 -107.246 236.382C-76.0271 223.804 -23.7852 312.526 9.67205 316.194C37.7474 319.272 69.0624 291.766 71.2826 298.451C73.5028 305.135 62.3234 323.927 64.8158 340.26C69.9216 373.718 146.996 383.672 137.57 397.226C128.144 410.779 97.8009 400.997 64.8158 419.551C33.7278 437.038 40.7709 496.393 21.4837 499.17Z" stroke="url(#paint8_linear_0_721)" stroke-width="2.3571"/>
<path fill-rule="evenodd" clip-rule="evenodd" d="M19.1299 485.028C3.81058 493.28 -6.81425 411.314 -40.387 399.583C-126.689 369.427 -152.713 466.79 -160.682 457.964C-170.459 447.136 -150.058 362.923 -120.697 345.984C-114.214 316.973 -138.266 267.352 -91.5643 258.012C-65.1255 247.359 -20.8826 322.497 7.45175 325.603C31.2283 328.21 57.7484 304.916 59.6287 310.577C61.5089 316.238 52.0413 332.152 54.1521 345.984C58.4761 374.319 114.542 380.803 113.414 394.28C112.739 402.345 82.0866 397.422 54.1521 413.135C27.8242 427.944 34.4492 476.776 19.1299 485.028Z" stroke="url(#paint9_linear_0_721)" stroke-width="2.3571"/>
<path fill-rule="evenodd" clip-rule="evenodd" d="M13.3753 471.475C-0.905114 461.458 -5.17189 402.463 -34.4938 392.217C-109.869 365.879 -132.425 434.988 -139.385 427.28C-147.924 417.823 -134.391 364.831 -108.747 350.036C-103.085 324.699 -124.092 281.36 -83.3034 273.203C-60.2121 263.899 -15.6342 330.872 9.11257 333.585C29.8786 335.861 46.3626 318.623 48.0048 323.567C49.6469 328.511 42.1197 337.956 43.9632 350.036C47.7397 374.784 96.7068 380.446 95.7214 392.217C95.1317 399.261 68.3608 394.961 43.9632 408.685C20.9688 421.619 27.6557 481.492 13.3753 471.475Z" stroke="url(#paint10_linear_0_721)" stroke-width="2.3571"/>
<path fill-rule="evenodd" clip-rule="evenodd" d="M10.8768 456.742C2.03762 442.011 -3.34239 395.651 -29.194 386.618C-95.648 363.398 -123.104 426.341 -129.241 419.545C-136.769 411.207 -124.838 364.487 -102.229 351.444C-97.2374 329.105 -115.757 290.896 -79.7966 283.703C-59.4383 275.501 -16.8339 339.441 4.984 341.833C23.2923 343.84 37.1237 330.992 38.5715 335.351C40.0193 339.71 34.5903 344.736 36.2156 355.387C39.5452 377.205 78.9088 378.254 78.04 388.632C77.5201 394.842 53.9176 391.051 32.4075 403.151C12.1346 414.554 19.7159 471.473 10.8768 456.742Z" stroke="url(#paint11_linear_0_721)" stroke-width="2.3571"/>
<path fill-rule="evenodd" clip-rule="evenodd" d="M9.11236 440.835C2.04112 424.923 -2.86738 389.454 -24.4763 381.904C-80.0243 362.494 -108.328 403.232 -113.457 397.551C-119.75 390.582 -106.858 365.233 -87.9597 354.33C-83.7872 335.657 -104.624 299.524 -74.5648 293.512C-57.5475 286.656 -15.6069 346.905 2.6304 348.904C17.9341 350.582 28.5268 341.725 29.737 345.368C30.9472 349.012 26.6106 350.608 27.9692 359.511C30.7523 377.749 63.4508 376.741 62.7246 385.415C62.29 390.607 42.561 387.438 24.5811 397.551C7.63523 407.083 16.1836 456.748 9.11236 440.835Z" stroke="url(#paint12_linear_0_721)" stroke-width="2.3571"/>
</g>
<g opacity="0.25">
<path fill-rule="evenodd" clip-rule="evenodd" d="M1406.88 603.585C1456.07 596.198 1509.57 648.524 1554.49 669.896C1598.59 690.879 1656.38 507.622 1686.39 546.148C1720.63 590.093 1687.47 773.619 1638.04 817.479C1637.04 875.419 1839.7 962.921 1660.67 1036.25C1593.21 1063.89 1562.76 987.259 1510.91 1007.24C1476.96 1020.32 1384.39 1093 1360.04 1053.6C1335.69 1014.21 1368.25 953.037 1332.53 919.646C1296.92 886.36 1199.04 870.592 1203.41 817.054C1207.81 763.046 1301.07 787.077 1339.96 749.346C1376.72 713.68 1356.23 611.192 1406.88 603.585Z" stroke="url(#paint13_linear_0_721)" stroke-width="2.3571"/>
<path fill-rule="evenodd" clip-rule="evenodd" d="M1428.94 625.58C1475.23 618.63 1510.44 672.504 1552.71 692.611C1594.2 712.353 1663.68 535.295 1691.92 571.541C1724.13 612.886 1692.93 785.553 1646.43 826.818C1645.49 881.33 1807.63 944.598 1664.22 1022.81C1620.65 1051.71 1549.16 970.774 1504.84 995.249C1460.52 1019.73 1427 1049.74 1384.87 1048.97C1340.89 1035.5 1385.37 960.636 1358.99 922.94C1330.02 881.531 1222.14 872.602 1226.25 822.231C1230.39 771.419 1327.64 791.324 1364.23 755.825C1398.82 722.269 1381.29 632.737 1428.94 625.58Z" stroke="url(#paint14_linear_0_721)" stroke-width="2.3571"/>
<path fill-rule="evenodd" clip-rule="evenodd" d="M1436.55 643.485C1482.84 636.535 1519.5 695.75 1561.76 715.858C1603.26 735.599 1686.3 531.798 1714.54 568.045C1746.75 609.39 1715.55 782.057 1669.05 823.322C1668.11 877.833 1805.52 923.991 1662.12 1002.21C1618.55 1031.1 1573.53 969.96 1521.48 974.833C1477.8 978.923 1460.12 1017.67 1404.29 1029.84C1348.45 1042.01 1407.98 957.14 1381.61 919.444C1352.64 878.034 1244.76 869.105 1248.87 818.734C1251.42 787.409 1347.24 802.58 1387.25 759.513C1420.76 723.442 1388.9 650.641 1436.55 643.485Z" stroke="url(#paint15_linear_0_721)" stroke-width="2.3571"/>
<path fill-rule="evenodd" clip-rule="evenodd" d="M1444.72 655.872C1491.01 648.922 1521.91 713.332 1564.17 733.44C1605.66 753.182 1709.92 537.21 1738.16 573.457C1770.37 614.802 1739.17 787.469 1692.67 828.734C1691.73 883.245 1806.56 915.341 1663.15 993.556C1619.59 1022.45 1584.82 956.391 1532.77 961.265C1489.09 965.354 1436.27 1009.93 1405.5 1012.72C1374.72 1015.5 1418.9 946.189 1392.53 908.493C1363.56 867.084 1268.38 874.517 1272.49 824.146C1275.04 792.821 1362.76 809.656 1402.77 766.589C1436.28 730.519 1397.07 663.028 1444.72 655.872Z" stroke="url(#paint16_linear_0_721)" stroke-width="2.3571"/>
<path fill-rule="evenodd" clip-rule="evenodd" d="M1455.58 667.693C1495.97 665.002 1528.46 730.607 1570.72 750.715C1612.22 770.456 1733.77 543.352 1762.01 579.598C1794.22 620.943 1763.02 793.61 1716.52 834.876C1715.58 889.387 1739.25 977.889 1687 999.698C1634.76 1021.51 1569.43 932.011 1526.81 945.597C1484.2 959.184 1444.27 993.251 1418.89 995.889C1393.52 998.528 1427.33 944.434 1416.38 914.635C1396.62 860.855 1292.23 880.659 1296.34 830.288C1298.89 798.962 1381 816.31 1421.01 773.243C1454.51 737.172 1407.93 674.849 1455.58 667.693Z" stroke="url(#paint17_linear_0_721)" stroke-width="2.3571"/>
<path fill-rule="evenodd" clip-rule="evenodd" d="M1461.5 681.709C1503.76 675.363 1536.56 749.716 1575.14 768.075C1613.15 775.693 1724.59 570.719 1750.38 603.811C1779.79 641.559 1751.3 799.201 1708.84 836.876C1707.98 886.644 1812.83 915.946 1681.9 987.356C1642.12 1013.73 1577.05 926.543 1529.53 930.992C1489.65 934.726 1445.62 985.154 1429.81 979.6C1414 974.045 1441.89 936.135 1434.82 909.695C1420.57 856.435 1313.87 877.061 1317.57 831.069C1318.65 817.56 1385.95 821.382 1426.48 786.198C1464.68 753.039 1417.99 688.242 1461.5 681.709Z" stroke="url(#paint18_linear_0_721)" stroke-width="2.3571"/>
<path fill-rule="evenodd" clip-rule="evenodd" d="M1468.27 694.157C1505.49 688.567 1534.27 763.616 1568.3 776.202C1601.49 800.944 1687.9 634.002 1710.62 663.152C1723.84 680.126 1723.47 803.62 1686.07 836.806C1685.31 880.645 1734.79 945.201 1670.09 972.554C1635.05 995.789 1569.98 915.79 1528.12 919.709C1492.99 922.998 1448.87 965.838 1440.28 962.526C1431.69 959.213 1450.93 924.239 1444.7 900.949C1432.15 854.035 1338.16 872.203 1341.41 831.691C1342.37 819.791 1401.65 823.158 1437.35 792.166C1470.99 762.957 1429.95 699.912 1468.27 694.157Z" stroke="url(#paint19_linear_0_721)" stroke-width="2.3571"/>
<path fill-rule="evenodd" clip-rule="evenodd" d="M1474.68 704.868C1510.52 706.532 1535.27 800.702 1590.54 782.74C1628.42 763.868 1711.25 638.032 1733.97 667.182C1747.19 684.156 1746.82 807.65 1709.42 840.836C1708.66 884.674 1758.14 949.231 1693.43 976.583C1658.39 999.819 1572.18 904.388 1530.32 908.307C1495.19 911.596 1457.66 951.528 1453.26 943.907C1448.87 936.286 1461.98 912.073 1456.8 892.717C1445.86 851.88 1371.27 866.272 1360.71 835.354C1356.85 824.057 1409.72 827.202 1445.41 796.211C1479.06 767.002 1441.78 711.625 1474.68 704.868Z" stroke="url(#paint20_linear_0_721)" stroke-width="2.3571"/>
<path fill-rule="evenodd" clip-rule="evenodd" d="M1477.17 716.99C1504.56 715.577 1522.59 782.86 1563.24 794.676C1619.06 810.897 1677.27 692.498 1688.59 700.814C1702.47 711.015 1698.87 813.267 1668.94 839.834C1668.33 874.93 1707.94 926.611 1656.14 948.508C1628.09 967.11 1559.06 890.712 1525.55 893.849C1497.43 896.482 1472.29 929.725 1468.77 923.624C1465.25 917.523 1472.42 896.866 1466.7 881.369C1454.96 849.622 1377.46 855.376 1383.97 840.204C1390.48 825.031 1422.17 828.509 1450.74 803.698C1477.68 780.315 1458.84 723.59 1477.17 716.99Z" stroke="url(#paint21_linear_0_721)" stroke-width="2.3571"/>
<path fill-rule="evenodd" clip-rule="evenodd" d="M1482.32 730.369C1495.67 719.204 1522.57 797.356 1557.81 802.094C1648.42 814.271 1654.32 713.664 1663.9 720.706C1675.66 729.346 1672.62 815.941 1647.26 838.441C1646.75 868.162 1680.29 911.931 1636.43 930.475C1612.67 946.228 1554.22 881.528 1525.84 884.185C1502.02 886.415 1480.73 914.568 1477.75 909.401C1474.77 904.234 1480.84 886.74 1475.99 873.615C1466.05 846.73 1409.83 851.658 1408.22 838.229C1407.26 830.193 1438.28 828.849 1462.48 807.838C1485.29 788.035 1468.98 741.534 1482.32 730.369Z" stroke="url(#paint22_linear_0_721)" stroke-width="2.3571"/>
<path fill-rule="evenodd" clip-rule="evenodd" d="M1490.69 742.487C1506.69 749.426 1522.74 806.358 1553.52 810.495C1632.66 821.131 1640.85 748.897 1649.22 755.048C1659.48 762.594 1656.89 817.225 1634.74 836.875C1634.29 862.834 1663.59 901.061 1625.28 917.257C1604.53 931.016 1547.39 874.38 1522.6 876.701C1501.8 878.648 1489.12 898.851 1486.52 894.338C1483.92 889.825 1489.39 879.059 1485.16 867.597C1476.48 844.115 1427.37 848.419 1425.97 836.691C1425.13 829.672 1452.22 828.499 1473.36 810.147C1493.28 792.852 1474.68 735.548 1490.69 742.487Z" stroke="url(#paint23_linear_0_721)" stroke-width="2.3571"/>
<path fill-rule="evenodd" clip-rule="evenodd" d="M1496.1 756.417C1507.72 769.068 1522.32 813.398 1549.46 817.046C1619.22 826.423 1633.46 759.243 1640.84 764.666C1649.89 771.318 1647.6 819.484 1628.08 836.809C1627.68 859.695 1653.51 893.397 1619.73 907.677C1601.44 919.807 1546.84 865.745 1524.99 867.791C1506.65 869.508 1495.69 884.876 1493.39 880.898C1491.1 876.919 1495.4 870.904 1491.67 860.798C1484.02 840.095 1445.25 846.986 1444.01 836.646C1443.27 830.458 1467.15 829.423 1485.79 813.244C1503.35 797.995 1484.48 743.766 1496.1 756.417Z" stroke="url(#paint24_linear_0_721)" stroke-width="2.3571"/>
</g>
</g>
<defs>
<linearGradient id="paint0_linear_0_721" x1="322.016" y1="469.13" x2="-190.75" y2="345.056" gradientUnits="userSpaceOnUse">
<stop stop-color="#FFDFC5"/>
<stop offset="0.526042" stop-color="#DCFBF5"/>
<stop offset="0.78125" stop-color="#C65466"/>
</linearGradient>
<linearGradient id="paint1_linear_0_721" x1="299.936" y1="455.346" x2="-189.804" y2="332.021" gradientUnits="userSpaceOnUse">
<stop stop-color="#FFDFC5"/>
<stop offset="0.526042" stop-color="#DCFBF5"/>
<stop offset="0.78125" stop-color="#C65466"/>
</linearGradient>
<linearGradient id="paint2_linear_0_721" x1="277.076" y1="460.753" x2="-209.617" y2="331.921" gradientUnits="userSpaceOnUse">
<stop stop-color="#FFDFC5"/>
<stop offset="0.526042" stop-color="#DCFBF5"/>
<stop offset="0.78125" stop-color="#C65466"/>
</linearGradient>
<linearGradient id="paint3_linear_0_721" x1="255.141" y1="456.753" x2="-228.666" y2="322.768" gradientUnits="userSpaceOnUse">
<stop stop-color="#FFDFC5"/>
<stop offset="0.526042" stop-color="#DCFBF5"/>
<stop offset="0.78125" stop-color="#C65466"/>
</linearGradient>
<linearGradient id="paint4_linear_0_721" x1="232.873" y1="446.666" x2="-250.353" y2="311.969" gradientUnits="userSpaceOnUse">
<stop stop-color="#FFDFC5"/>
<stop offset="0.526042" stop-color="#DCFBF5"/>
<stop offset="0.78125" stop-color="#C65466"/>
</linearGradient>
<linearGradient id="paint5_linear_0_721" x1="211.255" y1="436.143" x2="-235.853" y2="310.137" gradientUnits="userSpaceOnUse">
<stop stop-color="#FFDFC5"/>
<stop offset="0.526042" stop-color="#DCFBF5"/>
<stop offset="0.78125" stop-color="#C65466"/>
</linearGradient>
<linearGradient id="paint6_linear_0_721" x1="186.377" y1="417.422" x2="-189.556" y2="313.299" gradientUnits="userSpaceOnUse">
<stop stop-color="#FFDFC5"/>
<stop offset="0.526042" stop-color="#DCFBF5"/>
<stop offset="0.78125" stop-color="#C65466"/>
</linearGradient>
<linearGradient id="paint7_linear_0_721" x1="167.366" y1="406.762" x2="-210.37" y2="300.181" gradientUnits="userSpaceOnUse">
<stop stop-color="#FFDFC5"/>
<stop offset="0.526042" stop-color="#DCFBF5"/>
<stop offset="0.78125" stop-color="#C65466"/>
</linearGradient>
<linearGradient id="paint8_linear_0_721" x1="144.913" y1="410.417" x2="-167.024" y2="324.97" gradientUnits="userSpaceOnUse">
<stop stop-color="#FFDFC5"/>
<stop offset="0.526042" stop-color="#DCFBF5"/>
<stop offset="0.78125" stop-color="#C65466"/>
</linearGradient>
<linearGradient id="paint9_linear_0_721" x1="118.913" y1="408.75" x2="-143.591" y2="339.189" gradientUnits="userSpaceOnUse">
<stop stop-color="#FFDFC5"/>
<stop offset="0.526042" stop-color="#DCFBF5"/>
<stop offset="0.78125" stop-color="#C65466"/>
</linearGradient>
<linearGradient id="paint10_linear_0_721" x1="100.447" y1="405.269" x2="-125.686" y2="346.487" gradientUnits="userSpaceOnUse">
<stop stop-color="#FFDFC5"/>
<stop offset="0.526042" stop-color="#DCFBF5"/>
<stop offset="0.78125" stop-color="#C65466"/>
</linearGradient>
<linearGradient id="paint11_linear_0_721" x1="82.2078" y1="399.931" x2="-117.106" y2="348.005" gradientUnits="userSpaceOnUse">
<stop stop-color="#FFDFC5"/>
<stop offset="0.526042" stop-color="#DCFBF5"/>
<stop offset="0.78125" stop-color="#C65466"/>
</linearGradient>
<linearGradient id="paint12_linear_0_721" x1="66.261" y1="393.197" x2="-103.073" y2="349.517" gradientUnits="userSpaceOnUse">
<stop stop-color="#FFDFC5"/>
<stop offset="0.526042" stop-color="#DCFBF5"/>
<stop offset="0.78125" stop-color="#C65466"/>
</linearGradient>
<linearGradient id="paint13_linear_0_721" x1="1188.83" y1="806.875" x2="1716.07" y2="825.257" gradientUnits="userSpaceOnUse">
<stop stop-color="#FFDFC5"/>
<stop offset="0.526042" stop-color="#DCFBF5"/>
<stop offset="0.78125" stop-color="#C65466"/>
</linearGradient>
<linearGradient id="paint14_linear_0_721" x1="1213.23" y1="815.935" x2="1717.77" y2="838.216" gradientUnits="userSpaceOnUse">
<stop stop-color="#FFDFC5"/>
<stop offset="0.526042" stop-color="#DCFBF5"/>
<stop offset="0.78125" stop-color="#C65466"/>
</linearGradient>
<linearGradient id="paint15_linear_0_721" x1="1234.53" y1="806.04" x2="1737.2" y2="834.328" gradientUnits="userSpaceOnUse">
<stop stop-color="#FFDFC5"/>
<stop offset="0.526042" stop-color="#DCFBF5"/>
<stop offset="0.78125" stop-color="#C65466"/>
</linearGradient>
<linearGradient id="paint16_linear_0_721" x1="1256.83" y1="805.545" x2="1757.7" y2="839.462" gradientUnits="userSpaceOnUse">
<stop stop-color="#FFDFC5"/>
<stop offset="0.526042" stop-color="#DCFBF5"/>
<stop offset="0.78125" stop-color="#C65466"/>
</linearGradient>
<linearGradient id="paint17_linear_0_721" x1="1280.67" y1="810.946" x2="1781.11" y2="845.678" gradientUnits="userSpaceOnUse">
<stop stop-color="#FFDFC5"/>
<stop offset="0.526042" stop-color="#DCFBF5"/>
<stop offset="0.78125" stop-color="#C65466"/>
</linearGradient>
<linearGradient id="paint18_linear_0_721" x1="1303.96" y1="816.906" x2="1767.28" y2="850.389" gradientUnits="userSpaceOnUse">
<stop stop-color="#FFDFC5"/>
<stop offset="0.526042" stop-color="#DCFBF5"/>
<stop offset="0.78125" stop-color="#C65466"/>
</linearGradient>
<linearGradient id="paint19_linear_0_721" x1="1332.1" y1="830.239" x2="1721.29" y2="856.605" gradientUnits="userSpaceOnUse">
<stop stop-color="#FFDFC5"/>
<stop offset="0.526042" stop-color="#DCFBF5"/>
<stop offset="0.78125" stop-color="#C65466"/>
</linearGradient>
<linearGradient id="paint20_linear_0_721" x1="1352.86" y1="836.856" x2="1744.32" y2="865.268" gradientUnits="userSpaceOnUse">
<stop stop-color="#FFDFC5"/>
<stop offset="0.526042" stop-color="#DCFBF5"/>
<stop offset="0.78125" stop-color="#C65466"/>
</linearGradient>
<linearGradient id="paint21_linear_0_721" x1="1374.12" y1="828.759" x2="1696.87" y2="849.706" gradientUnits="userSpaceOnUse">
<stop stop-color="#FFDFC5"/>
<stop offset="0.526042" stop-color="#DCFBF5"/>
<stop offset="0.78125" stop-color="#C65466"/>
</linearGradient>
<linearGradient id="paint22_linear_0_721" x1="1399.93" y1="825.161" x2="1671.06" y2="840.491" gradientUnits="userSpaceOnUse">
<stop stop-color="#FFDFC5"/>
<stop offset="0.526042" stop-color="#DCFBF5"/>
<stop offset="0.78125" stop-color="#C65466"/>
</linearGradient>
<linearGradient id="paint23_linear_0_721" x1="1418.71" y1="824.857" x2="1652.05" y2="836.944" gradientUnits="userSpaceOnUse">
<stop stop-color="#FFDFC5"/>
<stop offset="0.526042" stop-color="#DCFBF5"/>
<stop offset="0.78125" stop-color="#C65466"/>
</linearGradient>
<linearGradient id="paint24_linear_0_721" x1="1437.66" y1="826.416" x2="1643.34" y2="837.184" gradientUnits="userSpaceOnUse">
<stop stop-color="#FFDFC5"/>
<stop offset="0.526042" stop-color="#DCFBF5"/>
<stop offset="0.78125" stop-color="#C65466"/>
</linearGradient>
<clipPath id="clip0_0_721">
<rect width="1440" height="1206" fill="white"/>
</clipPath>
</defs>
</svg>
