<svg width="32" height="32" viewBox="0 0 32 32" fill="none" xmlns="http://www.w3.org/2000/svg">
<mask id="mask0_17_1068" style="mask-type:luminance" maskUnits="userSpaceOnUse" x="10" y="10" width="12" height="14">
<path d="M22 10H10V24H22V10Z" fill="white"/>
</mask>
<g mask="url(#mask0_17_1068)">
<path fill-rule="evenodd" clip-rule="evenodd" d="M14.4579 10.7991C13.6368 11.233 12.9649 11.6003 12.9651 11.6152C12.9655 11.6537 14.9359 12.6661 15.0058 12.6637C15.0376 12.6626 15.2684 12.5548 15.5186 12.4242L15.9737 12.1868L16.4706 12.4459L16.9676 12.7051L17.7814 12.3341C19.0077 11.7751 19.135 11.7138 19.1151 11.6932C19.0886 11.6659 18.6487 11.4262 17.4554 10.7888C16.8787 10.4808 16.319 10.1788 16.2115 10.1176C16.1041 10.0565 16.0015 10.0074 15.9836 10.0083C15.9657 10.0093 15.2791 10.3651 14.4579 10.7991ZM10.8564 12.6912L10.0015 13.1391V15.1051C10.0015 16.1864 10.0128 17.0711 10.0265 17.0711C10.0403 17.0711 10.4608 16.8861 10.9611 16.6601L11.8707 16.2491V14.1768L12.3152 14.4225C12.6577 14.6116 13.0005 14.8004 13.3434 14.9888L13.9271 15.3094L14.1868 15.1902C14.3497 15.1154 14.5122 15.0398 14.6745 14.9635C14.7998 14.9043 15.1076 14.7637 15.3583 14.651C15.609 14.5382 15.8411 14.4248 15.8741 14.399C15.9178 14.3647 15.3847 14.0658 13.9022 13.2935C12.7848 12.7113 11.8347 12.2368 11.7908 12.2391C11.747 12.2414 11.3265 12.4448 10.8564 12.6912ZM19.2691 12.817C18.6869 13.0836 18.2102 13.3124 18.2097 13.3255C18.2091 13.3385 18.5265 13.5299 18.9148 13.7508C19.3032 13.9717 19.6209 14.1642 19.6209 14.1787C19.6209 14.1932 19.2773 14.3621 18.8573 14.5542C18.4373 14.7462 17.3756 15.2326 16.4981 15.6351L13.5575 16.9836C12.8178 17.3228 12.1511 17.6286 12.0759 17.6632C10.565 18.357 10.1497 18.5496 10.0927 18.5826C10.0354 18.6159 10.0224 18.8092 10.0122 19.7795L10 20.9367L10.7644 21.3318L11.5288 21.727L12.5888 21.2417C13.1717 20.9748 13.6487 20.7424 13.6487 20.7253C13.6487 20.7082 13.541 20.637 13.4094 20.567C13.2777 20.4969 13.0059 20.3419 12.8053 20.2224C12.6047 20.1028 12.4047 19.9932 12.3608 19.9786C12.3169 19.9641 12.2816 19.9387 12.2823 19.9222C12.2831 19.9057 12.7498 19.6808 13.3195 19.4223C14.426 18.9204 15.2728 18.5336 17.0907 17.6995C17.9036 17.3266 18.7166 16.954 19.5297 16.5816C20.2444 16.2543 21.0752 15.8721 21.3761 15.7322L21.9232 15.4779L21.9354 14.3075L21.9476 13.1372L21.1723 12.7335C20.7458 12.5114 20.3814 12.3303 20.3622 12.331C20.3431 12.3316 19.8512 12.5503 19.2691 12.817ZM21.7155 17.0393C21.6012 17.0959 21.3756 17.2019 21.214 17.2748C21.0524 17.3478 20.7458 17.4881 20.5327 17.5868L20.1452 17.7661L20.1364 18.7936C20.1315 19.3587 20.111 19.8185 20.0908 19.8156C20.0449 19.8086 19.3186 19.4308 18.5886 19.0339C18.0616 18.7474 18.0285 18.7361 17.9047 18.7983C17.8331 18.8343 17.4053 19.0289 16.9539 19.231C16.5026 19.4329 16.1186 19.6114 16.1006 19.6276C16.0825 19.6437 16.9909 20.1432 18.1192 20.7376L20.1706 21.8183L21.0469 21.3584C21.5288 21.1055 21.9386 20.8748 21.9575 20.8458C22 20.7806 21.9964 16.9274 21.9538 16.9326C21.937 16.9347 21.8297 16.9827 21.7155 17.0393ZM16.8628 21.5619C16.7108 21.6282 16.5588 21.6946 16.4069 21.7611C15.9481 21.9625 16.038 21.9692 15.4922 21.6935C15.1287 21.5099 14.972 21.4533 14.904 21.4808C14.8529 21.5014 14.4139 21.7018 13.9282 21.9261C13.4425 22.1504 13.0283 22.3339 13.0077 22.3339C12.8039 22.3339 13.1427 22.5393 14.4499 23.2083L15.983 23.9928L16.628 23.6697C16.9828 23.492 17.6984 23.1362 18.2182 22.879C18.738 22.6217 19.1569 22.4045 19.1491 22.3964C19.1412 22.3882 18.7056 22.1613 18.1811 21.8921L17.2275 21.4028L16.8628 21.5619Z" fill="white"/>
</g>
<path d="M30 16.5C30 8.49187 23.5081 2 15.5 2C7.49187 2 1 8.49187 1 16.5C1 24.5081 7.49187 31 15.5 31C23.5081 31 30 24.5081 30 16.5Z" stroke="white" stroke-width="2"/>
</svg>
