<svg width="81" height="44" viewBox="0 0 81 44" fill="none" xmlns="http://www.w3.org/2000/svg">
<path d="M49.8116 43.0325L24.9987 12.8062L24.949 30.2485L49.8116 43.0325Z" fill="white"/>
<path d="M24.9492 30.2483L24.9988 12.8062L0 42.6477L24.9492 30.2483Z" fill="#0067E5"/>
<path d="M0.188434 0.000183836L25.0013 30.2266L25.051 12.7843L0.188434 0.000183836Z" fill="white"/>
<path d="M25.0508 12.7849L25.0012 30.2271L50 0.385504L25.0508 12.7849Z" fill="#0067E5"/>
<path d="M62.793 27.7811L51.5077 27.7895V24.6161C51.5077 24.3953 51.5876 24.2059 51.7519 24.0432C51.9217 23.8808 52.1238 23.8002 52.3638 23.8002H60.5177C61.1684 23.8002 61.7274 23.5787 62.1891 23.1366C62.6568 22.6943 62.893 22.1567 62.893 21.5291V19.4005C62.893 18.7729 62.6568 18.2353 62.1891 17.7931C61.7275 17.351 61.1684 17.1295 60.5177 17.1295H50.3099H50.2099V17.2295V18.5694V18.6694H50.3099H60.5177C60.7345 18.6694 60.9124 18.7418 61.0582 18.8863L61.0582 18.8864L61.0594 18.8876C61.212 19.0337 61.2854 19.2031 61.2854 19.4005V21.5291C61.2854 21.7266 61.212 21.896 61.0594 22.0421C60.9139 22.1815 60.7356 22.2518 60.5177 22.2518H52.3638C51.6834 22.2518 51.1006 22.4847 50.6212 22.9497C50.1418 23.409 49.9 23.9662 49.9 24.6161V29.2295V29.3295H50H62.793H62.893V29.2295V27.8811V27.781L62.793 27.7811ZM68.6606 28.2077L68.6609 28.208C69.447 28.9553 70.3926 29.3295 71.492 29.3295H76.0957C77.2009 29.3295 78.1466 28.9554 78.9271 28.2077C79.7076 27.46 80.1 26.555 80.1 25.498V20.9694C80.1 19.9069 79.7077 18.9991 78.9271 18.2513C78.1466 17.5036 77.2009 17.1295 76.0957 17.1295H71.492C70.3926 17.1295 69.447 17.5037 68.6609 18.251L68.6606 18.2513C67.8799 18.9991 67.4877 19.9069 67.4877 20.9694V25.498C67.4877 26.555 67.8801 27.4601 68.6606 28.2077ZM76.0957 18.6694C76.7609 18.6694 77.3261 18.8944 77.7969 19.3452C78.2618 19.796 78.4923 20.3356 78.4923 20.9694V25.498C78.4923 26.1259 78.262 26.6628 77.7969 27.1138C77.326 27.5646 76.7608 27.7896 76.0957 27.7896H71.492C70.8268 27.7896 70.2616 27.5646 69.7908 27.1138C69.3257 26.6628 69.0953 26.1259 69.0953 25.498V20.9694C69.0953 20.3356 69.3259 19.796 69.7908 19.3452C70.2616 18.8944 70.8268 18.6694 71.492 18.6694H76.0957Z" fill="white" stroke="white" stroke-width="0.2"/>
</svg>
