<svg width="32" height="32" viewBox="0 0 32 32" fill="none" xmlns="http://www.w3.org/2000/svg">
<path d="M9 12.1227C9.00027 11.8453 9.14075 11.6029 9.34994 11.4718L9.35326 11.4699L15.6484 7.60018C15.7495 7.53718 15.8711 7.5 16.0008 7.5C16.1305 7.5 16.2521 7.5372 16.3566 7.60211L16.3533 7.60018L22.6435 11.4751C22.8573 11.6065 22.9991 11.8485 23 12.126V19.8725C22.9986 20.1481 22.8583 20.3885 22.6501 20.5182L22.6467 20.5201L16.3533 24.3985C16.2523 24.4623 16.1307 24.5 16.0008 24.5C15.871 24.5 15.7494 24.4623 15.6451 24.3966L15.6484 24.3985L9.35329 20.5201C9.1417 20.3885 9.00145 20.1481 9.00003 19.8727V19.8725L9 12.1227ZM10.9698 18.659C10.9721 18.9339 11.1121 19.1733 11.3197 19.3029L11.323 19.3049L15.6484 21.9732C15.7493 22.037 15.8709 22.0747 16.0008 22.0747C16.1307 22.0747 16.2523 22.037 16.3565 21.9713L16.3533 21.9732L20.6769 19.3049C20.8896 19.1722 21.0302 18.9298 21.0302 18.6524C21.0302 18.6523 21.0302 18.6522 21.0302 18.6521V16.6712L16.3533 19.5479C16.2519 19.6112 16.13 19.6486 16 19.6486C15.8699 19.6486 15.7481 19.6112 15.6434 19.546L15.6467 19.5479L13.926 18.4889V16.0671L15.5311 17.0619C15.6329 17.1258 15.7553 17.1635 15.886 17.1635C16.0167 17.1635 16.1391 17.1258 16.2442 17.0599L16.2409 17.0619L21.027 14.1106V13.3397C21.0267 13.0623 20.8862 12.8199 20.677 12.6889L20.6737 12.6869L16.3532 10.0255C16.2518 9.96256 16.1299 9.92539 16 9.92539C15.87 9.92539 15.7482 9.96257 15.6433 10.0275L15.6467 10.0255L11.3263 12.6835C11.1138 12.8165 10.9733 13.0588 10.973 13.3362V15.3275L12.9428 14.1123L15.6467 12.4508C15.7469 12.3875 15.8676 12.3501 15.9965 12.3501C15.9977 12.3501 15.9989 12.3501 16.0001 12.3501H15.9999C16.0005 12.3501 16.0013 12.3501 16.002 12.3501C16.1319 12.3501 16.2536 12.3875 16.3582 12.4528L16.3548 12.4508L18.0674 13.5081H18.0788V15.9386L16.4753 14.9456C16.3739 14.8813 16.2517 14.8433 16.1213 14.8433C15.9908 14.8433 15.8686 14.8813 15.7639 14.9475L15.7672 14.9456L12.9412 16.6816V16.6678L10.9698 17.883V18.659Z" fill="white"/>
<rect x="1" y="1" width="30" height="30" rx="15" stroke="white" stroke-width="2"/>
</svg>
