<svg width="24" height="25" viewBox="0 0 24 25" fill="none" xmlns="http://www.w3.org/2000/svg">
<path fill-rule="evenodd" clip-rule="evenodd" d="M12 0.513184C5.37097 0.513184 0 5.88415 0 12.5132C0 19.1422 5.37097 24.5132 12 24.5132C18.629 24.5132 24 19.1422 24 12.5132C24 5.88415 18.629 0.513184 12 0.513184ZM17.8935 8.73384L15.9241 18.0145C15.779 18.6726 15.387 18.8322 14.8403 18.5226L11.8403 16.3113L10.3935 17.7048C10.2338 17.8645 10.0983 18 9.78866 18L10.0016 14.9467L15.5612 9.92417C15.8032 9.71126 15.508 9.5903 15.1887 9.8032L8.31769 14.129L5.3564 13.2048C4.71285 13.0016 4.69834 12.5613 5.49189 12.2516L17.0612 7.7903C17.5983 7.59675 18.0677 7.92094 17.8935 8.73384Z" fill="#0067E5"/>
</svg>
