<svg width="24" height="25" viewBox="0 0 24 25" fill="none" xmlns="http://www.w3.org/2000/svg">
<path fill-rule="evenodd" clip-rule="evenodd" d="M8.29 20.5151C15.837 20.5151 19.965 14.3587 19.965 9.0206C19.965 8.84535 19.965 8.67109 19.953 8.49781C20.756 7.92677 21.449 7.2179 22 6.40664C21.252 6.73351 20.457 6.94814 19.644 7.04265C20.5 6.53758 21.141 5.74404 21.448 4.80774C20.642 5.27835 19.761 5.61014 18.842 5.78835C17.288 4.16188 14.689 4.08312 13.036 5.6131C11.971 6.59961 11.518 8.07052 11.849 9.47349C8.55 9.31006 5.476 7.77614 3.392 5.25276C2.303 7.09877 2.86 9.45971 4.663 10.6451C4.01 10.6264 3.371 10.4531 2.8 10.14V10.1912C2.801 12.114 4.178 13.77 6.092 14.151C5.488 14.3135 4.854 14.3371 4.24 14.22C4.777 15.8661 6.318 16.9934 8.073 17.0259C6.62 18.1503 4.825 18.7607 2.977 18.7587C2.651 18.7577 2.325 18.739 2 18.7006C3.877 19.886 6.06 20.5151 8.29 20.5122" fill="#0067E5"/>
</svg>
